# xmcd CD database file
#
# Track frame offsets:
#	150
#	15035
#	30948
#	46950
#	66558
#	82990
#	99073
#	115168
#	134140
#	146833
#	162913
#	177618
#	195498
#	216330
#	236918
#	254488
#
# Disc length: 3670 seconds
#
# Revision: 0
# Processed by: cddbd v1.5.1PL2 Copyright (c) Steve Scherf et al.
# Submitted via: CDex 1.50beta8
#
DISCID=e00e5410
DTITLE=島倉千代子 - 島倉千代子_スペシャルベスト
DYEAR=2005
DGENRE=Enka
TTITLE0=この世の花
TTITLE1=夢飾り
TTITLE2=りんどう峠
TTITLE3=夕焼けの歌
TTITLE4=東京だヨおっ母さん
TTITLE5=からたち日記
TTITLE6=哀愁のからまつ林
TTITLE7=あの頃にとどけ
TTITLE8=恋しているんだもん
TTITLE9=ほんきかしら
TTITLE10=愛のさざなみ
TTITLE11=君
TTITLE12=海かがみ
TTITLE13=風のみち
TTITLE14=人生いろいろ
TTITLE15=ちよこまち（シングルバージョン）
EXTD=YEAR: 2005
EXTT0=
EXTT1=
EXTT2=
EXTT3=
EXTT4=
EXTT5=
EXTT6=
EXTT7=
EXTT8=
EXTT9=
EXTT10=
EXTT11=
EXTT12=
EXTT13=
EXTT14=
EXTT15=
PLAYORDER=
